# xmcd
#
# Track frame offsets: 
#        150
#        15337
#        29102
#        45385
#        80967
#        99730
#        111757
#        126760
#        144460
#        157017
#        169522
#        186545
#
# Disc length: 2779 seconds
#
# Revision: 3
# Processed by: cddbd v1.5.2PL0 Copyright (c) Steve Scherf et al.
# Submitted via: ExactAudioCopyFreeDBPlugin 1.0
#
DISCID=a30ad90c
DTITLE=Various Artist - Blues Slide Guitar
DYEAR=1996
DGENRE=Blues
TTITLE0=Smokin' Joe Kubek Band Featuring Bnois King - Come By Here
TTITLE1=J.B. Hutto - Somebody Loan Me A Dime
TTITLE2=Hound Dog Taylor - Give Me Back My Wig
TTITLE3=George Thorogood and The Destroyers - Delaware Slide
TTITLE4=Ron Levy's Wild Kingdom With Ronnie Earl and Wayne Bennett - Kne
TTITLE4=e Squeeze
TTITLE5=Hop Wilson - Dance To It (Chicken Stuff)
TTITLE6=Elmore James - It Hurts Me Too
TTITLE7=Lil' Ed and The Blues Imperials - Packin' Up
TTITLE8=Earl Hooker - Blue Guitar
TTITLE9=Hop Wilson - I Done Got Over
TTITLE10=J.B. Hutto - New Hawk Walk
TTITLE11=Smokin' Joe Kubek - Walk With You
EXTD=
EXTT0=Smokin' Joe Kubek Band featuring Bnois \nKing\n
EXTT1=J.B. Hutto\n
EXTT2=Hound Dog Taylor\n
EXTT3=George Thorogood and the Destroyers\n
EXTT4=Ron Levy's Wild Kingdome with Ronnie \nEarl and Wayne Bennett\n
EXTT5=Hop Wilson\n
EXTT6=Elmore James\n
EXTT7=Lil' Ed and the Blues Imperials\n
EXTT8=Earl Hooker\n
EXTT9=Hop Wilson\n
EXTT10=J.B. Hutto\n
EXTT11=Smokin' Joe Kubek\n
PLAYORDER=
